<svg xmlns="http://www.w3.org/2000/svg" width="32" height="30.5" preserveAspectRatio="xMidYMid"><defs><style>.cls-1 { fill: #95e1d3; fill-rule: evenodd; }</style></defs><path d="M30.74 9.5c-1.58-3.7-4.55-6.66-8.24-8.24C23.5.46 24.75 0 26.13 0 29.37 0 32 2.63 32 5.87c0 1.38-.47 2.63-1.26 3.63zM30.5 16c0 3.85-1.5 7.34-3.96 9.94l2.03 2.03c.26.27.43.64.43 1.05 0 .82-.66 1.48-1.48 1.48-.4 0-.78-.17-1.05-.43L24.3 27.9c-2.36 1.63-5.2 2.6-8.3 2.6-3.08 0-5.93-.97-8.28-2.6l-2.16 2.16c-.27.27-.65.44-1.06.44-.83 0-1.5-.67-1.5-1.5 0-.4.17-.8.44-1.06l2-2C3.02 23.33 1.5 19.83 1.5 16 1.5 8 8 1.5 16 1.5S30.5 8 30.5 16zM16 4.5C9.65 4.5 4.5 9.65 4.5 16S9.65 27.5 16 27.5 27.5 22.35 27.5 16 22.35 4.5 16 4.5zm6 13h-6c-.83 0-1.5-.67-1.5-1.5V8c0-.83.67-1.5 1.5-1.5s1.5.67 1.5 1.5v6.5H22c.83 0 1.5.67 1.5 1.5s-.67 1.5-1.5 1.5zM1.3 9.7C.47 8.7 0 7.4 0 6c0-3.3 2.7-6 6-6 1.4 0 2.7.48 3.7 1.3-3.77 1.6-6.8 4.63-8.4 8.4z" class="cls-1"/></svg>