<svg xmlns="http://www.w3.org/2000/svg" width="32" height="32" preserveAspectRatio="xMidYMid"><defs><style>.cls-1 { fill: #95e1d3; fill-rule: evenodd; }</style></defs><path d="M31.07 25.9l-14.48 5.98c-.2.08-.4.12-.6.12-.2 0-.4-.04-.6-.12l-14.46-6C.4 25.7 0 25.14 0 24.5v-23C0 .67.67 0 1.5 0c.2 0 .4.04.57.1 0 .02.02.02.02.02L16 5.88 29.9.12c.02 0 .02 0 .02 0 .18-.08.38-.12.58-.12.83 0 1.5.67 1.5 1.5v23c0 .63-.4 1.17-.93 1.4zM14.5 8.5L3 3.74V23.5l11.5 4.76V8.5zM29 3.74L17.5 8.5v19.76L29 23.5V3.74zm-9.12 6.9l5.5-2.5c.2-.1.4-.14.62-.14.83 0 1.5.67 1.5 1.5 0 .6-.36 1.13-.88 1.37l-5.5 2.5c-.2.08-.4.13-.62.13-.83 0-1.5-.67-1.5-1.5 0-.6.36-1.13.88-1.37zm0 5.5l5.5-2.5c.2-.1.4-.14.62-.14.83 0 1.5.67 1.5 1.5 0 .6-.36 1.13-.88 1.36l-5.5 2.5c-.2.1-.4.14-.62.14-.83 0-1.5-.67-1.5-1.5 0-.6.36-1.13.88-1.37zm0 5.5l5.5-2.5c.2-.1.4-.14.62-.14.83 0 1.5.67 1.5 1.5 0 .6-.36 1.13-.88 1.36l-5.5 2.5c-.2.1-.4.14-.62.14-.83 0-1.5-.67-1.5-1.5 0-.6.36-1.13.88-1.37zM6 8c.22 0 .43.05.62.13l5.5 2.5c.52.24.88.76.88 1.37 0 .83-.67 1.5-1.5 1.5-.22 0-.43-.05-.62-.13l-5.5-2.5c-.52-.24-.88-.76-.88-1.37C4.5 8.67 5.17 8 6 8zm0 5.5c.22 0 .43.05.62.13l5.5 2.5c.52.24.88.76.88 1.37 0 .83-.67 1.5-1.5 1.5-.22 0-.43-.05-.62-.14l-5.5-2.5c-.52-.23-.88-.75-.88-1.36 0-.83.67-1.5 1.5-1.5zM6 19c.22 0 .43.05.62.13l5.5 2.5c.52.24.88.76.88 1.37 0 .83-.67 1.5-1.5 1.5-.22 0-.43-.05-.62-.14l-5.5-2.5c-.52-.23-.88-.75-.88-1.36 0-.83.67-1.5 1.5-1.5z" class="cls-1"/></svg>