<svg xmlns="http://www.w3.org/2000/svg" width="16.03" height="14.25" preserveAspectRatio="xMidYMid"><defs><style>.cls-1 { fill: #95e1d3; fill-rule: evenodd; }</style></defs><path d="M8.45 12.23c-.58 0-1.14-.17-1.68-.25-2.2 2.78-5.65 2.23-5.65 2.23 2.44-1.14 2.4-3.06 1.96-3.3C1.16 9.75 0 8.04 0 6.1 0 2.73 3.75 0 8.46 0c4.7 0 7.57 2.73 7.57 6.13s-2.87 6.1-7.57 6.1zm-4.18-7.5c-.83 0-1.5.7-1.5 1.5 0 .84.67 1.5 1.5 1.5s1.5-.66 1.5-1.5c0-.8-.67-1.5-1.5-1.5zm3.75 0c-.83 0-1.5.7-1.5 1.5 0 .84.67 1.5 1.5 1.5s1.5-.66 1.5-1.5c0-.8-.67-1.5-1.5-1.5zm3.75 0c-.83 0-1.5.7-1.5 1.5 0 .84.67 1.5 1.5 1.5s1.5-.66 1.5-1.5c0-.8-.67-1.5-1.5-1.5z" class="cls-1"/></svg>