<svg xmlns="http://www.w3.org/2000/svg" width="31" height="28" preserveAspectRatio="xMidYMid"><defs><style>.cls-1 { fill: #95e1d3; fill-rule: evenodd; }</style></defs><path d="M29.5 23H20v2.5l2 2v.5H9v-.5l2-2V23H1.5C.67 23 0 22.33 0 21.5v-20C0 .67.67 0 1.5 0h28c.83 0 1.5.67 1.5 1.5v20c0 .83-.67 1.5-1.5 1.5zM29 2H2v17h27V2zM12.5 9c.4 0 .8.17 1.06.44l.94.94 2.94-2.94c.27-.27.65-.44 1.06-.44.83 0 1.5.67 1.5 1.5 0 .4-.17.8-.44 1.06l-4 4c-.27.27-.65.44-1.06.44-.4 0-.8-.17-1.06-.44l-2-2c-.27-.27-.44-.65-.44-1.06 0-.83.67-1.5 1.5-1.5z" class="cls-1"/></svg>