<svg xmlns="http://www.w3.org/2000/svg" width="16" height="16" preserveAspectRatio="xMidYMid"><defs><style>.cls-1 { fill: #95e1d3; fill-rule: evenodd; }</style></defs><path d="M15.84 6.4c-.1-.5-.27-1.02-.47-1.5-.2-.48-.45-.93-.74-1.36-.28-.42-.6-.82-.97-1.18s-.76-.7-1.2-.98c-.4-.3-.87-.54-1.35-.74-.47-.2-.97-.36-1.5-.46C9.1.08 8.55.02 8 .02S6.92.07 6.4.18c-.53.1-1.03.26-1.52.46-.47.2-.93.45-1.35.74-.43.3-.83.62-1.2.98-.35.36-.68.76-.96 1.18-.3.43-.54.88-.74 1.36-.2.48-.36 1-.47 1.5C.06 6.93 0 7.47 0 8c0 .56.05 1.1.16 1.63.1.5.26 1.02.47 1.5.2.47.45.93.74 1.36.28.4.6.8.97 1.17.36.36.76.7 1.2.98.4.3.87.54 1.34.74.5.2 1 .35 1.5.45.54.1 1.08.17 1.62.17s1.08-.06 1.6-.17c.53-.1 1.03-.26 1.5-.46.5-.2.95-.46 1.37-.75.43-.3.82-.62 1.2-.98.35-.36.68-.76.96-1.18.3-.44.54-.9.74-1.37.2-.48.36-1 .47-1.5.1-.53.16-1.07.16-1.62 0-.53-.05-1.07-.16-1.6zm-1 1.55c-.1-.03-2.42-.52-4.77-.23-.05-.1-.1-.23-.15-.35-.14-.33-.3-.67-.45-1 2.7-1.1 3.8-2.68 3.8-2.7.96 1.17 1.54 2.66 1.56 4.28zM12.5 2.9s-.98 1.5-3.56 2.46C7.78 3.2 6.5 1.5 6.4 1.36c.5-.1 1.04-.18 1.6-.18 1.73 0 3.3.65 4.5 1.7zM6.37 1.37s0 0-.02 0c0 0 .02 0 .02 0zm-1.28.46c.1.12 1.36 1.83 2.54 3.93-3.28.87-6.13.84-6.3.84.44-2.1 1.86-3.86 3.76-4.76zM1.2 8c0-.06 0-.13 0-.2.1 0 3.5.08 7-.97.2.38.4.77.56 1.16-.1 0-.18.04-.27.07-3.68 1.2-5.55 4.5-5.55 4.5-1.1-1.2-1.75-2.8-1.75-4.56zM8 14.86c-1.65 0-3.17-.6-4.35-1.57.1.07.15.12.15.12s1.3-2.86 5.36-4.27c.02 0 .03 0 .05 0 .97 2.5 1.37 4.58 1.47 5.18-.82.35-1.72.55-2.67.55zm3.82-1.17c-.07-.4-.44-2.42-1.33-4.88 2.2-.35 4.1.25 4.25.3-.3 1.9-1.4 3.55-2.93 4.58z" class="cls-1"/></svg>