<svg xmlns="http://www.w3.org/2000/svg" width="16" height="13.78" preserveAspectRatio="xMidYMid"><defs><style>.cls-1 { fill: #95e1d3; fill-rule: evenodd; }</style></defs><path d="M13.5 3.47V5.9h-1V3.48H10v-1h2.5V.03h1v2.44H16v1h-2.5zM6.6 1c.87.5 1.4 1.28 1.4 2.33 0 .87-.55 1.56-1.25 2.1-.68.52-.8.74-.8 1.2 0 .36.72 1 1.1 1.27 1.12.78 1.45 1.5 1.45 2.7 0 1.5-1.45 3.17-4.12 3.17-2.34 0-4.38-1.13-4.38-2.62 0-1.52 1.87-3 4.2-3 .26 0 .5 0 .74 0-.32-.3-.57-.7-.57-1.15 0-.28.1-.55.2-.8-.12.02-.25 0-.38 0C2.25 6.2.96 4.8.96 3.15.98 1.5 2.78 0 4.66 0 5.7 0 8.87 0 8.87 0l-.95 1H6.6zM4.64 8.55c-1.62-.02-3.08.97-3.08 2.15 0 1.2 1.17 2.1 2.8 2.1 2.27 0 3.07-.82 3.07-2.03 0-.15-.02-.3-.06-.43-.2-.7-.82-1.03-1.7-1.63-.3-.1-.67-.15-1.04-.15zm1.82-5.2C6.28 1.95 5.2.82 4.12.8 3.02.74 2.3 1.82 2.5 3.22c.18 1.4 1.2 2.57 2.3 2.6 1.1.03 1.86-1.08 1.68-2.48z" class="cls-1"/></svg>