<svg xmlns="http://www.w3.org/2000/svg" width="32" height="30.5" preserveAspectRatio="xMidYMid"><defs><style>.cls-1 { fill: #95e1d3; fill-rule: evenodd; }</style></defs><path d="M32 16c0 .83-.67 1.5-1.5 1.5-.4 0-.75-.16-1.02-.4L16.04 3.66 16 3.62 2.55 17.07c-.27.27-.64.43-1.05.43-.83 0-1.5-.67-1.5-1.5 0-.43.18-.8.46-1.08L14.92.46C15.2.18 15.57 0 16 0c.03 0 .05 0 .08 0 .04 0 .06 0 .08 0 .37.05.7.22.94.48l5.9 5.9V5c0-.83.67-1.5 1.5-1.5S26 4.17 26 5v4.38l5.6 5.6c.24.27.4.63.4 1.02zm-3 2.5V29c0 .83-.67 1.5-1.5 1.5h-3v-12h-6v12h-14c-.83 0-1.5-.67-1.5-1.5V18.5l13-13 13 13zm-15.5 0h-6v6h6v-6z" class="cls-1"/></svg>