<svg xmlns="http://www.w3.org/2000/svg" width="16" height="16" preserveAspectRatio="xMidYMid"><defs><style>.cls-1 { fill: #95e1d3; fill-rule: evenodd; }</style></defs><path d="M14 16.02H2c-1.1 0-2-.9-2-2v-12c0-1.1.9-2 2-2h12c1.1 0 2 .9 2 2v12c0 1.1-.9 2-2 2zM8 4.92c-1.25 0-2.32.73-2.8 1.8-.02 0-.02.02-.03.03-.03.06-.05.13-.08.2-.02.03-.03.06-.04.1-.03.07-.05.14-.06.2 0 .04-.02.08-.03.1-.02.08-.03.16-.04.24 0 .02 0 .05 0 .08-.02.1-.03.22-.03.34 0 1.7 1.4 3.1 3.1 3.1 1.7 0 3.1-1.4 3.1-3.1 0-.12 0-.23-.02-.34 0-.03 0-.06 0-.1-.02-.07-.04-.15-.05-.22 0-.03-.02-.07-.03-.1-.02-.07-.03-.14-.06-.2 0-.05-.02-.08-.03-.1-.02-.08-.04-.15-.07-.2 0-.02 0-.03-.02-.04-.48-1.07-1.55-1.8-2.8-1.8zm6.2-2.3c0-.45-.36-.8-.8-.8h-1.6c-.44 0-.8.35-.8.8v1.6c0 .44.36.8.8.8h1.6c.44 0 .8-.36.8-.8V2.6zm0 4.1h-1.47c.1.4.17.85.17 1.3 0 2.7-2.2 4.9-4.9 4.9S3.1 10.71 3.1 8c0-.45.06-.9.17-1.3H1.8v6.7c0 .44.36.8.8.8h10.8c.44 0 .8-.36.8-.8V6.7z" class="cls-1"/></svg>