<svg xmlns="http://www.w3.org/2000/svg" width="32" height="32" preserveAspectRatio="xMidYMid"><defs><style>.cls-1 { fill: #95e1d3; fill-rule: evenodd; }</style></defs><path d="M30.5 32h-29C.67 32 0 31.33 0 30.5v-29C0 .67.67 0 1.5 0h29c.83 0 1.5.67 1.5 1.5v29c0 .83-.67 1.5-1.5 1.5zM29 3H3v26h26V3zM5.2 16.24l4-2.5h.02c.22-.14.5-.22.78-.22.3 0 .6.1.84.26l6.64 4.4 7.63-5.38c.26-.2.57-.3.9-.3.83 0 1.5.68 1.5 1.5 0 .5-.25.95-.62 1.22l-8.5 6c-.25.18-.55.3-.88.3-.32-.02-.62-.1-.86-.3L9.98 16.8l-3.13 1.95c-.24.17-.54.27-.85.27-.83 0-1.5-.67-1.5-1.5 0-.54.3-1.02.7-1.28z" class="cls-1"/></svg>