<svg xmlns="http://www.w3.org/2000/svg" width="30" height="30" preserveAspectRatio="xMidYMid"><defs><style>.cls-1 { fill: #95e1d3; fill-rule: evenodd; }</style></defs><path d="M30 24c0 .65-.42 1.2-1 1.4v1.7c.58.2 1 .75 1 1.4 0 .83-.67 1.5-1.5 1.5-.65 0-1.2-.42-1.4-1h-1.7c-.2.58-.75 1-1.4 1-.65 0-1.2-.42-1.4-1h-1.7c-.2.58-.75 1-1.4 1-.65 0-1.2-.42-1.4-1h-1.7c-.2.58-.75 1-1.4 1-.65 0-1.2-.42-1.4-1h-1.7c-.2.58-.75 1-1.4 1-.65 0-1.2-.42-1.4-1H7.4c-.2.58-.75 1-1.4 1-.65 0-1.2-.42-1.4-1H2.9c-.2.58-.75 1-1.4 1-.83 0-1.5-.67-1.5-1.5 0-.65.42-1.2 1-1.4v-1.7c-.58-.2-1-.75-1-1.4 0-.66.42-1.2 1-1.4v-1.7c-.58-.2-1-.75-1-1.4 0-.65.42-1.2 1-1.4v-1.7c-.58-.2-1-.75-1-1.4 0-.65.42-1.2 1-1.4v-1.7c-.58-.2-1-.75-1-1.4 0-.65.42-1.2 1-1.4V7.4C.42 7.2 0 6.66 0 6c0-.65.42-1.2 1-1.4V2.9c-.58-.2-1-.75-1-1.4C0 .67.67 0 1.5 0c.65 0 1.2.42 1.4 1h1.7c.2-.58.75-1 1.4-1 .65 0 1.2.42 1.4 1h1.7c.2-.58.75-1 1.4-1 .65 0 1.2.42 1.4 1h1.7c.2-.58.75-1 1.4-1 .65 0 1.2.42 1.4 1h1.7c.2-.58.75-1 1.4-1 .65 0 1.2.42 1.4 1h1.7c.2-.58.75-1 1.4-1 .65 0 1.2.42 1.4 1h1.7c.2-.58.75-1 1.4-1 .83 0 1.5.67 1.5 1.5 0 .65-.42 1.2-1 1.4v1.7c.58.2 1 .75 1 1.4 0 .65-.42 1.2-1 1.4v1.7c.58.2 1 .75 1 1.4 0 .65-.42 1.2-1 1.4v1.7c.58.2 1 .75 1 1.4 0 .65-.42 1.2-1 1.4v1.7c.58.2 1 .75 1 1.4 0 .65-.42 1.2-1 1.4v1.7c.58.2 1 .74 1 1.4zM26 4H4v22h22V4zM13 20l7-8.5 4.5 7v6h-19l6-6L13 20zm-3-7c-1.66 0-3-1.35-3-3 0-1.66 1.34-3 3-3s3 1.34 3 3c0 1.65-1.34 3-3 3z" class="cls-1"/></svg>