<svg xmlns="http://www.w3.org/2000/svg" width="12.25" height="16" preserveAspectRatio="xMidYMid"><defs><style>.cls-1 { fill: #95e1d3; fill-rule: evenodd; }</style></defs><path d="M5.1 10.4c-.14.5-.27 1.06-.4 1.6-.14.52-.26 1.05-.45 1.54-.33.8-.74 1.57-1.28 2.2-.36.42-.28.25-.4.23-.07-.02-.08-.1-.1-.22-.1-.63-.03-1.37 0-2.1.04-.8.22-1.48.38-2.16.3-1.3.6-2.56.9-3.86 0-.08.07-.23.05-.28-.14-.36-.23-.68-.27-1.06-.04-.43 0-.84.1-1.2.16-.67.56-1.26 1.17-1.47.4-.14.82-.08 1.08.08.28.17.46.42.55.8.1.37.02.83-.05 1.17-.17.76-.4 1.33-.6 2.07-.1.36-.2.74-.1 1.13.08.36.27.6.52.8.27.2.58.3 1.02.28.77-.03 1.3-.52 1.66-.98.57-.74.9-1.74 1.04-2.93.04-.38.08-.82.05-1.26-.06-.8-.3-1.44-.7-1.95-.4-.47-.92-.85-1.58-1.06-.66-.22-1.55-.3-2.35-.15-1.45.25-2.47 1.07-3.07 2.2-.32.6-.52 1.3-.52 2.14 0 .66.16 1.17.42 1.56.08.13.2.23.28.38.12.2 0 .5-.07.72-.08.27-.1.64-.4.64-.12 0-.3-.1-.4-.15C.8 8.67.3 7.85.1 6.8c-.13-.65-.13-1.4 0-2.03.1-.6.33-1.16.58-1.6.5-.95 1.25-1.7 2.16-2.24.7-.4 1.48-.7 2.44-.83.32-.05.65-.06 1-.08 1.05-.06 2 .18 2.7.5.76.33 1.36.78 1.87 1.33.52.58.9 1.24 1.15 2.07.12.44.25.9.25 1.43 0 .54-.12 1-.2 1.48-.3 1.78-1.13 3.23-2.4 4.05-.3.2-.67.38-1.1.5-.4.13-.88.22-1.4.18-.5-.03-.9-.17-1.23-.36-.34-.2-.63-.42-.83-.78z" class="cls-1"/></svg>