<svg xmlns="http://www.w3.org/2000/svg" width="17.62" height="17.625" preserveAspectRatio="xMidYMid"><defs><style>.cls-1 { fill: #fff; fill-rule: evenodd; }</style></defs><path d="M17.13 14.8c.3.3.48.7.48 1.16 0 .9-.73 1.65-1.64 1.65-.46 0-.87-.17-1.17-.47L9.95 12.3c-1 .57-2.13.9-3.35.9-3.63 0-6.6-2.94-6.6-6.6C0 2.98 2.97 0 6.6 0c3.66 0 6.6 2.97 6.6 6.6 0 1.24-.33 2.38-.9 3.36l4.83 4.83zM6.6 1.65c-2.72 0-4.94 2.22-4.94 4.95 0 2.75 2.22 4.96 4.95 4.96 2.74 0 4.96-2.2 4.96-4.95 0-2.72-2.22-4.94-4.95-4.94z" class="cls-1"/></svg>