<svg xmlns="http://www.w3.org/2000/svg" width="17.62" height="14.031" preserveAspectRatio="xMidYMid"><defs><style>.cls-1 { fill: #fff; fill-rule: evenodd; }</style></defs><path d="M17.54 3.1l-2.48 5.5c-.12.27-.38.46-.7.5l-7.12.46.4 1.18h7.77c.92 0 1.66.74 1.66 1.65 0 .9-.74 1.64-1.65 1.64-.9 0-1.64-.74-1.64-1.65h-7.7c0 .9-.74 1.64-1.65 1.64-.9 0-1.64-.74-1.64-1.65 0-.92.74-1.66 1.65-1.66h1.5L2.72 1.66H.83c-.44 0-.8-.37-.8-.82C0 .38.37 0 .8 0h2.5c.35 0 .65.24.77.57l.47 1.37h12.21c.46 0 .83.37.83.82 0 .12-.02.24-.06.34zm-12.4.5l1.53 4.34 7.1-.47L15.5 3.6H5.16z" class="cls-1"/></svg>