<svg xmlns="http://www.w3.org/2000/svg" width="63" height="61" preserveAspectRatio="xMidYMid"><defs><style>.cls-1 { fill: #95e1d3; fill-rule: evenodd; }</style></defs><path d="M60 36h-2v5c0 .2-.02.4-.06.6-.03.14-.08.27-.12.4-.02.05-.03.1-.06.16-.04.12-.1.23-.17.33-.05.05-.07.12-.1.18-.1.14-.22.27-.35.4 0 0-.02.03-.03.04-.53.54-1.27.87-2.08.88-.02 0-.03 0-.04 0-.83 0-1.58-.34-2.12-.88L45.76 36H18c-1.66 0-3-1.34-3-3V3c0-1.66 1.34-3 3-3h42c1.66 0 3 1.34 3 3v30c0 1.66-1.34 3-3 3zm-15.48 3l6.32 6.33C51.95 46.34 53.4 47 55 47v2c0 1.66-1.34 3-3 3H20.24l-8.12 8.12c-.54.54-1.3.88-2.12.88 0 0-.02 0-.04 0-.8-.02-1.55-.35-2.08-.88 0 0-.02-.03-.03-.04-.13-.13-.24-.26-.34-.4-.03-.06-.05-.13-.1-.2-.05-.1-.12-.2-.16-.3-.03-.07-.04-.13-.06-.18-.04-.13-.1-.26-.12-.4-.04-.2-.06-.4-.06-.6v-6H3c-1.66 0-3-1.35-3-3V15c0-1.66 1.34-3 3-3h9v21c0 3.3 2.7 6 6 6h26.52z" class="cls-1"/></svg>