<svg xmlns="http://www.w3.org/2000/svg" width="10" height="16.03" preserveAspectRatio="xMidYMid"><defs><style>.cls-1 { fill: #95e1d3; fill-rule: evenodd; }</style></defs><path d="M10 15.14c-.67.33-1.3.55-1.84.68-.55.13-1.15.2-1.8.2-.72 0-1.15-.1-1.7-.28-.57-.18-1.04-.45-1.44-.8-.4-.33-.67-.7-.82-1.08-.15-.4-.23-.94-.23-1.68v-5.6H0V4.3c.63-.2 1.36-.5 1.8-.88.45-.38.8-.84 1.08-1.37.27-.54.46-1.2.56-2.04H5.7v3.7h3.68v2.87H5.7v4.1c0 .93 0 1.47.1 1.73.08.26.33.54.6.7.35.2.75.3 1.2.3.8 0 1.6-.25 2.4-.78v2.53z" class="cls-1"/></svg>