<svg xmlns="http://www.w3.org/2000/svg" width="16" height="13" preserveAspectRatio="xMidYMid"><defs><style>.cls-1 { fill: #95e1d3; fill-rule: evenodd; }</style></defs><path d="M10.88.02c1.27-.03 1.95.44 2.6 1.02.55-.04 1.26-.35 1.68-.56.13-.08.27-.15.4-.22C15.34.9 15 1.4 14.5 1.8c-.1.08-.22.2-.36.25.7 0 1.3-.32 1.86-.5-.3.48-.7.95-1.1 1.3-.18.13-.36.26-.53.4 0 .75 0 1.47-.15 2.1-.82 3.7-3 6.2-6.43 7.26-1.24.4-3.24.56-4.65.2-.7-.17-1.34-.37-1.93-.63-.33-.14-.64-.3-.93-.47-.1-.06-.2-.12-.3-.18.32 0 .7.1 1.05.04.32-.05.64-.04.94-.1.73-.17 1.4-.38 1.96-.7.27-.17.7-.36.88-.6-.36 0-.7-.07-.97-.17C2.8 9.6 2.2 8.9 1.8 7.9c.3.02 1.23.1 1.45-.08-.4-.02-.8-.25-1.07-.43C1.32 6.85.63 5.95.63 4.57c.1.05.23.1.34.16.2.1.43.14.7.2.1.02.3.08.44.03-.18-.2-.45-.32-.6-.52C.93 3.75.42 2.72.74 1.47c.08-.32.22-.6.35-.85 0 0 .02 0 .02 0 .06.14.2.23.3.35.28.34.62.66.97.93 1.2.94 2.27 1.5 4 1.94.45.1.96.2 1.48.2-.15-.44-.1-1.13.02-1.55.3-1.05.92-1.8 1.85-2.2.23-.1.47-.18.73-.24.14 0 .27-.03.4-.04z" class="cls-1"/></svg>