<svg xmlns="http://www.w3.org/2000/svg" width="31.938" height="22.53" preserveAspectRatio="xMidYMid"><defs><style>.cls-1 { fill: #fff; fill-rule: evenodd; }</style></defs><path d="M31.95 21.53c0 .55-.45 1-1 1h-7.4c.55-.13.96-.62.96-1.2.02 0 0 0 0 0h.02s0-4.5-3.3-6.15c-1.42-.7-1.5-.57-2.2-.73V12.5s-.76-.6-1-2.44c-.48.14-.64-.56-.67-1-.03-.44-.28-1.8.3-1.67-.1-.9-.2-1.72-.16-2.16.14-1.5 1.6-3.1 3.85-3.2 2.65.1 3.7 1.7 3.85 3.2.04.44-.05 1.25-.17 2.15.58-.13.33 1.22.3 1.65-.02.45-.2 1.15-.67 1-.24 1.85-1 2.44-1 2.44v1.93s.5.28 2.55 1.13c2.07.85 1.43.2 3.1 1.05 2.65 1.32 2.65 4.93 2.65 4.93zm-14.93-6.66c2.27.94 1.55.24 3.4 1.15 2.9 1.44 2.9 5.4 2.9 5.4s0 .02 0 .02c0 .6-.48 1.1-1.08 1.1H1.1c-.6 0-1.1-.5-1.1-1.1 0 0 0-3.98 2.9-5.42 1.85-.9 1.14-.17 3.4-1.1 2.27-.94 2.8-1.27 2.8-1.27l.03-2.15S8.28 10.85 8 8.83c-.5.15-.7-.62-.72-1.1-.03-.5-.3-1.97.34-1.84-.13-1-.23-1.9-.18-2.37C7.6 1.87 9.2.13 11.68 0c2.9.13 4.07 1.87 4.23 3.53.05.48-.05 1.37-.18 2.36.65-.14.37 1.34.33 1.8-.03.5-.2 1.28-.73 1.12-.27 2.03-1.1 2.67-1.1 2.67v2.13s.54.3 2.8 1.24z" class="cls-1"/></svg>